HIERARCHY
ROOT Hips
{
	OFFSET 0.000000 0.000000 0.000000 
	CHANNELS 6 Xposition Yposition Zposition Zrotation Yrotation Xrotation
	JOINT LeftUpLeg
	{
		OFFSET 1.363060 -1.794630 0.839290 
		CHANNELS 3 Zrotation Yrotation Xrotation
		JOINT LeftLeg
		{
			OFFSET 2.448110 -6.726130 0.000000 
			CHANNELS 3 Zrotation Yrotation Xrotation
			JOINT LeftFoot
			{
				OFFSET 2.562200 -7.039590 0.000000 
				CHANNELS 3 Zrotation Yrotation Xrotation
				JOINT LeftToeBase
				{
					OFFSET 0.157640 -0.433110 2.322550 
					CHANNELS 3 Zrotation Yrotation Xrotation
					End Site
					{
						OFFSET 0.000000 0.000000 0.000000 
					}
				}
			}
		}
	}
	JOINT RightUpLeg
	{
		OFFSET -1.305520 -1.794630 0.839290 
		CHANNELS 3 Zrotation Yrotation Xrotation
		JOINT RightLeg
		{
			OFFSET -2.542530 -6.985550 0.000000 
			CHANNELS 3 Zrotation Yrotation Xrotation
			JOINT RightFoot
			{
				OFFSET -2.568260 -7.056230 0.000000 
				CHANNELS 3 Zrotation Yrotation Xrotation
				JOINT RightToeBase
				{
					OFFSET -0.164730 -0.452590 2.363150 
					CHANNELS 3 Zrotation Yrotation Xrotation
					End Site
					{
						OFFSET 0.000000 0.000000 0.000000 
					}
				}
			}
		}
	}
	JOINT Spine
	{
		OFFSET 0.028270 2.035590 -0.193380 
		CHANNELS 3 Zrotation Yrotation Xrotation
		JOINT Spine1
		{
			OFFSET 0.056720 2.048850 -0.042750 
			CHANNELS 3 Zrotation Yrotation Xrotation
			JOINT Neck1
			{
				OFFSET -0.054170 1.746240 0.172020 
				CHANNELS 3 Zrotation Yrotation Xrotation
				JOINT Head
				{
					OFFSET 0.104070 1.761360 -0.123970 
					CHANNELS 3 Zrotation Yrotation Xrotation
					End Site
					{
						OFFSET 0.000000 0.000000 0.000000 
					}
				}
			}
			JOINT LeftArm
			{
				OFFSET 3.362410 1.200890 -0.311210 
				CHANNELS 3 Zrotation Yrotation Xrotation
				JOINT LeftForeArm
				{
					OFFSET 4.983000 -0.000000 -0.000000 
					CHANNELS 3 Zrotation Yrotation Xrotation
					JOINT LeftHand
					{
						OFFSET 3.483560 -0.000000 -0.000000 
						CHANNELS 3 Zrotation Yrotation Xrotation
						JOINT LeftHandIndex1
						{
							OFFSET 0.715260 -0.000000 -0.000000 
							CHANNELS 3 Zrotation Yrotation Xrotation
							End Site
							{
								OFFSET 0.000000 0.000000 0.000000 
							}
						}
					}
				}
			}
			JOINT RightArm
			{
				OFFSET -3.136600 1.374050 -0.404650 
				CHANNELS 3 Zrotation Yrotation Xrotation
				JOINT RightForeArm
				{
					OFFSET -5.241900 -0.000000 -0.000000 
					CHANNELS 3 Zrotation Yrotation Xrotation
					JOINT RightHand
					{
						OFFSET -3.444170 -0.000000 -0.000000 
						CHANNELS 3 Zrotation Yrotation Xrotation
						JOINT RightHandIndex1
						{
							OFFSET -0.622530 -0.000000 -0.000000 
							CHANNELS 3 Zrotation Yrotation Xrotation
							End Site
							{
								OFFSET 0.000000 0.000000 0.000000 
							}
						}
					}
				}
			}
		}
	}
}
MOTION
Frames: 7
Frame Time: 0.041667
-7.613433 17.494265 43.450774 -177.052711 -3.470890 -169.171741 -13.031903 2.539333 -21.000405 -0.744870 10.878337 26.985391 2.862091 -3.847651 3.452698 0.000600 -0.153700 -0.422400 22.735112 -14.780983 -24.778248 0.436501 -10.567094 25.802275 -6.729685 24.879896 4.619282 -0.003000 0.351600 -0.966100 0.582899 3.679368 -4.797138 0.308736 0.885394 -13.103304 8.671925 -14.968145 7.930796 20.606900 -8.896600 3.001900 -79.351104 12.381266 46.303744 17.197887 -23.284298 -4.476929 -0.208406 -0.189303 -35.379805 -7.125000 0.000000 0.000000 74.455909 -9.951411 25.742457 -9.279499 19.143102 -2.368255 -0.020012 0.579996 24.542878 7.125000 0.000000 0.000000 
-7.622163 17.490287 43.443923 -177.007879 -3.613587 -169.139431 -12.954850 2.143196 -20.904956 -0.733689 10.922873 27.070418 2.773603 -3.601107 3.273643 0.000700 -0.166900 -0.458700 22.749238 -14.693709 -24.738808 0.428664 -10.577961 25.818695 -6.737109 24.622466 4.419838 -0.005300 0.471100 -1.294600 0.604160 3.557174 -4.814979 0.331783 0.802100 -13.471781 8.918838 -15.484563 7.366867 21.022300 -9.037700 2.534900 -79.484004 12.547696 46.154058 17.044684 -23.126401 -4.411064 -0.202228 -0.174382 -35.293194 -7.125000 0.000000 0.000000 74.495639 -10.191312 25.546730 -9.303699 19.192361 -2.384561 -0.026856 0.588160 24.803311 7.125000 0.000000 0.000000 
-7.632772 17.481999 43.435524 -176.920157 -3.677855 -169.116597 -12.856159 1.781495 -20.803148 -0.719378 10.964609 27.154830 2.663509 -3.290992 3.107108 0.001100 -0.214600 -0.589700 22.732087 -14.416366 -24.522471 0.425723 -10.594138 25.825917 -6.741061 24.248531 4.126700 -0.008700 0.603100 -1.657200 0.627007 3.496692 -4.809131 0.350809 0.766850 -13.606750 9.004111 -16.216452 7.005261 21.145100 -9.306600 2.378900 -79.615871 12.824627 45.997483 17.159287 -23.271217 -4.465798 -0.195771 -0.192445 -35.159600 -7.125000 0.000000 0.000000 74.415895 -10.333104 25.835520 -9.306846 19.218765 -2.384563 -0.019910 0.582720 24.637904 7.125000 0.000000 0.000000 
-7.643270 17.478352 43.425247 -176.853777 -3.765771 -169.098715 -12.780717 1.422659 -20.677182 -0.707180 11.003247 27.231595 2.561931 -3.009757 2.925068 0.001500 -0.248600 -0.683100 22.779804 -14.387152 -24.510816 0.418779 -10.607475 25.843646 -6.743471 24.064297 3.969361 -0.011800 0.701100 -1.926800 0.639214 3.454242 -4.791031 0.331815 0.745472 -13.650782 9.067115 -16.999495 6.674442 21.157400 -9.583900 2.348400 -79.636865 12.753382 45.959334 17.097305 -23.204117 -4.438333 -0.186542 -0.186856 -35.086775 -7.125000 0.000000 0.000000 74.428841 -10.271251 25.715027 -9.314826 19.223141 -2.388754 -0.020801 0.583949 24.693223 7.125000 0.000000 0.000000 
-7.653879 17.473711 43.415191 -176.783637 -3.853545 -169.087756 -12.703457 1.080587 -20.558362 -0.694051 11.041855 27.310355 2.470476 -2.758031 2.752246 0.001700 -0.268600 -0.738100 22.804873 -14.272205 -24.424339 0.414091 -10.620159 25.854434 -6.743025 23.793568 3.771101 -0.016100 0.819200 -2.251400 0.657950 3.395935 -4.779509 0.335945 0.715490 -13.745601 9.153137 -17.751248 6.328149 21.223600 -9.850500 2.263500 -79.698919 12.807098 45.890885 17.084464 -23.197940 -4.434062 -0.176693 -0.187243 -35.010731 -7.125000 0.000000 0.000000 74.395841 -10.298903 25.755886 -9.326950 19.243852 -2.393929 -0.019981 0.584935 24.644960 7.125000 0.000000 0.000000 
-7.664598 17.469401 43.404250 -176.712702 -3.940914 -169.084773 -12.630363 0.756035 -20.429078 -0.684801 11.072466 27.370046 2.384477 -2.521907 2.595663 0.001900 -0.283600 -0.779200 22.828216 -14.145946 -24.332116 0.407404 -10.637970 25.877623 -6.739701 23.498025 3.565614 -0.021100 0.938300 -2.579000 0.676431 3.342951 -4.765765 0.340439 0.690220 -13.820399 9.230733 -18.514819 6.002806 21.259900 -10.124600 2.208600 -79.745681 12.848862 45.844799 17.074196 -23.195495 -4.430853 -0.165256 -0.187826 -34.951052 -7.125000 0.000000 0.000000 74.358800 -10.318975 25.801688 -9.340576 19.266051 -2.399457 -0.019023 0.585990 24.569445 7.125000 0.000000 0.000000 
-7.675649 17.465312 43.392647 -176.646940 -4.026716 -169.088505 -12.566474 0.449550 -20.300180 -0.675076 11.103122 27.431035 2.305521 -2.307148 2.440652 0.002000 -0.292300 -0.803000 22.843555 -13.996635 -24.222674 0.402784 -10.653739 25.895661 -6.731503 23.158975 3.364362 -0.027000 1.061000 -2.916700 0.695180 3.288329 -4.754072 0.348096 0.664023 -13.911663 9.316676 -19.259336 5.676027 21.302100 -10.389100 2.141200 -79.787064 12.898094 45.801337 17.051861 -23.181118 -4.422643 -0.153626 -0.186197 -34.909179 -7.125000 0.000000 0.000000 74.325727 -10.356625 25.830380 -9.356074 19.290881 -2.406064 -0.018790 0.588243 24.500956 7.125000 0.000000 0.000000 
